<svg width="206" height="42" viewBox="0 0 206 42" fill="none" xmlns="http://www.w3.org/2000/svg">
<g clip-path="url(#clip0_356_8310)">
<path fill-rule="evenodd" clip-rule="evenodd" d="M20.4955 8.25501e-07C22.8734 -0.0742041 23.4867 2.30963 25.7514 3.03313C28.0161 3.75663 31.0828 2.70848 33.055 4.01634C35.0271 5.32421 34.1024 7.60601 35.4989 9.50751C36.8955 11.3997 40.0094 12.318 40.8209 14.5163C41.6324 16.7147 39.5093 18.0225 39.5093 20.36C39.5093 22.6974 41.4814 25.239 40.8209 27.4837C40.1604 29.7284 37.6692 29.5707 36.2727 31.4629C34.8762 33.3551 34.9422 36.5552 33.0644 37.9837C31.1866 39.4214 29.2617 37.8445 27.0064 38.568C24.7417 39.2915 22.8828 41.9165 20.5144 41.9907C19.0989 42.0371 18.3063 41.2116 17.4287 40.386C17.4665 35.3958 19.533 30.8785 22.8734 27.595C26.0439 24.4784 30.2241 22.6047 34.678 22.2893C34.376 25.5172 32.9134 28.5782 30.5733 30.8785C28.6766 32.7429 26.2515 34.0786 23.5339 34.6537C25.1758 30.86 27.148 28.2443 29.9505 25.5729C27.6481 26.4819 25.6099 27.8732 23.968 29.6263C21.8354 31.8989 20.5332 34.4868 20.0048 37.4642C20.1841 37.4735 20.3539 37.4735 20.5144 37.4735C25.1475 37.4735 29.3371 35.6277 32.3756 32.6502C35.414 29.6634 37.2824 25.5451 37.2824 20.9907V19.7385C31.1772 19.7385 25.9307 21.0464 21.0617 25.8233C19.7312 27.1312 18.5705 28.6246 17.6363 30.2385C15.7491 29.6727 14.1072 28.5689 12.89 27.1034C11.5029 25.443 10.6819 23.3096 10.6819 20.9907C10.6819 18.3193 11.7859 15.9077 13.5599 14.1546C15.3434 12.4015 17.7968 11.3255 20.5144 11.3255C22.5243 11.3255 24.402 11.9192 25.959 12.9302C27.5632 13.9784 28.8276 15.481 29.5919 17.2527L29.9977 18.208L31.0356 17.9854C31.7245 17.837 32.4322 17.7164 33.1493 17.633C33.8854 17.5495 34.5931 17.4845 35.2819 17.466L36.9898 17.4103L36.4614 15.8242C35.348 12.485 33.1777 9.62809 30.3468 7.60601C27.5537 5.67668 24.1661 4.51723 20.4955 4.51723C15.8623 4.51723 11.6727 6.36308 8.63427 9.34982C5.59583 12.3273 3.72748 16.4549 3.72748 21.0093C3.72748 24.8216 5.04854 28.337 7.26603 31.1383C9.28536 33.6798 12.0407 35.6277 15.2207 36.6665C15.0791 37.3993 14.9753 38.1413 14.9187 38.8927C12.6918 38.3547 9.81378 39.2544 7.93599 38.0022C5.96384 36.6944 6.88858 34.4125 5.49203 32.5203C4.10492 30.6095 0.990998 29.6913 0.17949 27.4837C-0.632017 25.2853 1.49111 23.9775 1.49111 21.64C1.49111 19.3026 -0.481039 16.761 0.17949 14.5163C0.84002 12.2716 3.33116 12.4293 4.72771 10.5371C6.12425 8.64488 6.0582 5.44479 7.93599 4.01634C9.81378 2.5879 11.7388 4.15548 13.994 3.43198C16.2681 2.70848 18.1176 0.0742058 20.4955 8.25501e-07ZM16.4851 32.511C14.2771 31.769 12.3427 30.424 10.8989 28.6895C9.15325 26.5932 8.11528 23.9125 8.11528 21C8.11528 17.6422 9.50239 14.5998 11.7388 12.3922C13.9846 10.1939 17.0796 8.83039 20.4955 8.83039C23.0244 8.83039 25.374 9.58172 27.3367 10.8618C29.0729 11.9934 30.4978 13.5424 31.4697 15.3604C31.9132 15.2862 32.3661 15.2213 32.8096 15.1656C32.9984 15.1378 33.1965 15.1193 33.3947 15.1007C32.3661 12.9302 30.7809 11.0565 28.8182 9.6652C26.478 8.00486 23.6094 7.02164 20.4955 7.02164C16.5701 7.02164 13.0126 8.58922 10.4366 11.1122C7.8605 13.6352 6.2658 17.1413 6.2658 21C6.2658 24.2465 7.3887 27.2239 9.25705 29.5892C10.9272 31.6948 13.2108 33.3273 15.834 34.2178C16.0416 33.6334 16.2587 33.0676 16.4851 32.511Z" fill="#566DFB"/>
</g>
<path d="M50.7011 30V13.5H55.2331V26.37L54.0231 25.424L63.3731 13.5H68.1911L54.8151 30H50.7011ZM58.5771 22.124L61.9211 19.352L68.4111 30H63.2411L58.5771 22.124ZM77.812 30.352C75.8613 30.352 74.1453 29.9927 72.664 29.274C71.1973 28.5553 70.0533 27.5507 69.232 26.26C68.4253 24.9693 68.022 23.466 68.022 21.75C68.022 20.034 68.4253 18.5307 69.232 17.24C70.0533 15.9493 71.1973 14.9447 72.664 14.226C74.1453 13.5073 75.8613 13.148 77.812 13.148C79.7773 13.148 81.4933 13.5073 82.96 14.226C84.4267 14.9447 85.5707 15.9493 86.392 17.24C87.2133 18.5307 87.624 20.034 87.624 21.75C87.624 23.466 87.2133 24.9693 86.392 26.26C85.5707 27.5507 84.4267 28.5553 82.96 29.274C81.4933 29.9927 79.7773 30.352 77.812 30.352ZM77.812 26.282C78.8827 26.282 79.8067 26.0987 80.584 25.732C81.3613 25.3653 81.9553 24.8447 82.366 24.17C82.7913 23.4953 83.004 22.6887 83.004 21.75C83.004 20.8113 82.7913 20.0047 82.366 19.33C81.9553 18.6553 81.3613 18.1347 80.584 17.768C79.8067 17.4013 78.8827 17.218 77.812 17.218C76.756 17.218 75.8393 17.4013 75.062 17.768C74.2847 18.1347 73.6833 18.6553 73.258 19.33C72.8327 20.0047 72.62 20.8113 72.62 21.75C72.62 22.6887 72.8327 23.4953 73.258 24.17C73.6833 24.8447 74.2847 25.3653 75.062 25.732C75.8393 26.0987 76.756 26.282 77.812 26.282ZM105.265 26.81L103.857 27.096V13.5H108.279V30H102.537L93.0106 16.426L94.3966 16.14V30H89.9746V13.5H95.8706L105.265 26.81ZM110.604 24.588H115.246C115.319 25.0427 115.532 25.4387 115.884 25.776C116.236 26.1133 116.705 26.3773 117.292 26.568C117.893 26.744 118.597 26.832 119.404 26.832C120.518 26.832 121.398 26.6927 122.044 26.414C122.689 26.1207 123.012 25.6953 123.012 25.138C123.012 24.7127 122.828 24.3827 122.462 24.148C122.095 23.9133 121.391 23.7447 120.35 23.642L117.27 23.356C114.996 23.1507 113.346 22.6373 112.32 21.816C111.293 20.98 110.78 19.858 110.78 18.45C110.78 17.306 111.11 16.338 111.77 15.546C112.444 14.754 113.383 14.16 114.586 13.764C115.803 13.3533 117.218 13.148 118.832 13.148C120.416 13.148 121.824 13.3753 123.056 13.83C124.288 14.27 125.263 14.9007 125.982 15.722C126.715 16.5433 127.111 17.4967 127.17 18.582H122.55C122.491 18.186 122.3 17.8487 121.978 17.57C121.67 17.2767 121.244 17.0567 120.702 16.91C120.159 16.7487 119.506 16.668 118.744 16.668C117.717 16.668 116.903 16.8073 116.302 17.086C115.7 17.35 115.4 17.746 115.4 18.274C115.4 18.6553 115.576 18.9633 115.928 19.198C116.294 19.4327 116.947 19.594 117.886 19.682L121.164 20.012C122.733 20.1587 123.987 20.4153 124.926 20.782C125.864 21.134 126.546 21.6253 126.972 22.256C127.397 22.8867 127.61 23.6713 127.61 24.61C127.61 25.7687 127.265 26.7807 126.576 27.646C125.886 28.4967 124.918 29.164 123.672 29.648C122.425 30.1173 120.973 30.352 119.316 30.352C117.614 30.352 116.111 30.1173 114.806 29.648C113.515 29.164 112.503 28.4893 111.77 27.624C111.036 26.744 110.648 25.732 110.604 24.588ZM134.482 15.502H139.058V30H134.482V15.502ZM128.19 13.5H145.35V17.548H128.19V13.5ZM150.462 20.716H156.468C157.202 20.716 157.774 20.5473 158.184 20.21C158.595 19.8727 158.8 19.4033 158.8 18.802C158.8 18.186 158.595 17.7167 158.184 17.394C157.774 17.0567 157.202 16.888 156.468 16.888H149.824L151.87 14.71V30H147.316V13.5H157.106C158.368 13.5 159.468 13.7273 160.406 14.182C161.345 14.622 162.078 15.238 162.606 16.03C163.134 16.8073 163.398 17.7313 163.398 18.802C163.398 19.8433 163.134 20.76 162.606 21.552C162.078 22.344 161.345 22.96 160.406 23.4C159.468 23.84 158.368 24.06 157.106 24.06H150.462V20.716ZM152.926 22.278H158.052L163.97 30H158.69L152.926 22.278ZM170.256 22.63C170.256 23.378 170.395 24.0307 170.674 24.588C170.967 25.1307 171.393 25.5487 171.95 25.842C172.522 26.1353 173.219 26.282 174.04 26.282C174.876 26.282 175.573 26.1353 176.13 25.842C176.687 25.5487 177.105 25.1307 177.384 24.588C177.663 24.0307 177.802 23.378 177.802 22.63V13.5H182.378V22.85C182.378 24.3607 182.026 25.6807 181.322 26.81C180.633 27.9247 179.665 28.7973 178.418 29.428C177.171 30.044 175.712 30.352 174.04 30.352C172.383 30.352 170.923 30.044 169.662 29.428C168.415 28.7973 167.44 27.9247 166.736 26.81C166.047 25.6807 165.702 24.3607 165.702 22.85V13.5H170.256V22.63ZM203.562 23.092C203.401 24.544 202.902 25.82 202.066 26.92C201.23 28.0053 200.13 28.8487 198.766 29.45C197.417 30.0513 195.862 30.352 194.102 30.352C192.181 30.352 190.502 29.9927 189.064 29.274C187.627 28.5553 186.505 27.5507 185.698 26.26C184.906 24.9693 184.51 23.466 184.51 21.75C184.51 20.034 184.906 18.5307 185.698 17.24C186.505 15.9493 187.627 14.9447 189.064 14.226C190.502 13.5073 192.181 13.148 194.102 13.148C195.862 13.148 197.417 13.4487 198.766 14.05C200.13 14.6513 201.23 15.502 202.066 16.602C202.902 17.6873 203.401 18.956 203.562 20.408H198.986C198.84 19.704 198.554 19.11 198.128 18.626C197.703 18.1273 197.146 17.746 196.456 17.482C195.782 17.218 194.997 17.086 194.102 17.086C193.076 17.086 192.188 17.2767 191.44 17.658C190.692 18.0247 190.12 18.56 189.724 19.264C189.328 19.9533 189.13 20.782 189.13 21.75C189.13 22.718 189.328 23.554 189.724 24.258C190.12 24.9473 190.692 25.4827 191.44 25.864C192.188 26.2307 193.076 26.414 194.102 26.414C194.997 26.414 195.782 26.2893 196.456 26.04C197.146 25.7907 197.703 25.4167 198.128 24.918C198.554 24.4193 198.84 23.8107 198.986 23.092H203.562Z" fill="#1E2023"/>
<defs>
<clipPath id="clip0_356_8310">
<rect width="41" height="42" fill="white"/>
</clipPath>
</defs>
</svg>
