<svg width="206" height="42" viewBox="0 0 206 42" fill="none" xmlns="http://www.w3.org/2000/svg">
<g clip-path="url(#clip0_240_67)">
<path fill-rule="evenodd" clip-rule="evenodd" d="M20.4952 -0.000258574C22.8731 -0.0744635 23.4865 2.30937 25.7512 3.03287C28.0158 3.75637 31.0826 2.70822 33.0547 4.01608C35.0269 5.32395 34.1021 7.60575 35.4987 9.50725C36.8952 11.3995 40.0092 12.3178 40.8207 14.5161C41.6322 16.7144 39.5091 18.0223 39.5091 20.3597C39.5091 22.6972 41.4812 25.2387 40.8207 27.4834C40.1601 29.7281 37.669 29.5704 36.2725 31.4626C34.8759 33.3549 34.942 36.555 33.0642 37.9834C31.1864 39.4211 29.2614 37.8443 27.0062 38.5678C24.7415 39.2913 22.8826 41.9163 20.5141 41.9905C19.0987 42.0368 18.3061 41.2113 17.4285 40.3858C17.4662 35.3955 19.5328 30.8783 22.8731 27.5947C26.0437 24.4781 30.2239 22.6044 34.6777 22.2891C34.3758 25.517 32.9132 28.5779 30.573 30.8783C28.6764 32.7427 26.2513 34.0784 23.5337 34.6535C25.1756 30.8597 27.1477 28.244 29.9502 25.5726C27.6478 26.4816 25.6096 27.873 23.9677 29.6261C21.8352 31.8986 20.533 34.4865 20.0046 37.464C20.1838 37.4732 20.3537 37.4732 20.5141 37.4732C25.1473 37.4732 29.3369 35.6274 32.3753 32.6499C35.4138 29.6632 37.2821 25.5448 37.2821 20.9905V19.7383C31.1769 19.7383 25.9305 21.0461 21.0614 25.8231C19.7309 27.1309 18.5703 28.6243 17.6361 30.2383C15.7489 29.6724 14.107 28.5686 12.8897 27.1031C11.5026 25.4428 10.6817 23.3094 10.6817 20.9905C10.6817 18.3191 11.7857 15.9074 13.5597 14.1543C15.3431 12.4012 17.7965 11.3253 20.5141 11.3253C22.524 11.3253 24.4018 11.9189 25.9588 12.93C27.5629 13.9781 28.8273 15.4807 29.5917 17.2524L29.9974 18.2078L31.0354 17.9852C31.7242 17.8368 32.4319 17.7162 33.1491 17.6327C33.8851 17.5492 34.5928 17.4843 35.2817 17.4657L36.9896 17.4101L36.4612 15.8239C35.3477 12.4847 33.1774 9.62783 30.3466 7.60575C27.5535 5.67642 24.1659 4.51697 20.4952 4.51697C15.8621 4.51697 11.6725 6.36282 8.63402 9.34957C5.59559 12.327 3.72723 16.4547 3.72723 21.009C3.72723 24.8213 5.04829 28.3368 7.26578 31.138C9.28512 33.6795 12.0405 35.6274 15.2204 36.6663C15.0789 37.399 14.9751 38.1411 14.9185 38.8924C12.6916 38.3544 9.81354 39.2542 7.93575 38.002C5.9636 36.6941 6.88834 34.4123 5.49179 32.5201C4.10468 30.6093 0.990754 29.691 0.179246 27.4834C-0.632261 25.2851 1.49087 23.9772 1.49087 21.6398C1.49087 19.3023 -0.481283 16.7608 0.179246 14.5161C0.839775 12.2714 3.33091 12.4291 4.72746 10.5368C6.12401 8.64462 6.05796 5.44453 7.93575 4.01608C9.81354 2.58764 11.7385 4.15522 13.9937 3.43172C16.2679 2.70822 18.1173 0.0739464 20.4952 -0.000258574ZM16.4849 32.5108C14.2768 31.7687 12.3424 30.4238 10.8987 28.6892C9.15301 26.5929 8.11504 23.9123 8.11504 20.9997C8.11504 17.642 9.50215 14.5996 11.7385 12.392C13.9843 10.1936 17.0794 8.83013 20.4952 8.83013C23.0241 8.83013 25.3737 9.58146 27.3364 10.8615C29.0727 11.9931 30.4975 13.5421 31.4695 15.3602C31.913 15.286 32.3659 15.221 32.8094 15.1654C32.9981 15.1376 33.1963 15.119 33.3944 15.1004C32.3659 12.93 30.7806 11.0563 28.8179 9.66494C26.4778 8.0046 23.6092 7.02139 20.4952 7.02139C16.5698 7.02139 13.0124 8.58897 10.4363 11.1119C7.86026 13.6349 6.26555 17.1411 6.26555 20.9997C6.26555 24.2462 7.38845 27.2237 9.25681 29.589C10.927 31.6945 13.2105 33.327 15.8338 34.2175C16.0414 33.6331 16.2584 33.0673 16.4849 32.5108Z" fill="#FF792D"/>
</g>
<path d="M50.7009 30V13.5H55.2329V26.37L54.0229 25.424L63.3729 13.5H68.1909L54.8149 30H50.7009ZM58.5769 22.124L61.9209 19.352L68.4109 30H63.2409L58.5769 22.124ZM77.8118 30.352C75.8611 30.352 74.1451 29.9927 72.6638 29.274C71.1971 28.5553 70.0531 27.5507 69.2318 26.26C68.4251 24.9693 68.0218 23.466 68.0218 21.75C68.0218 20.034 68.4251 18.5307 69.2318 17.24C70.0531 15.9493 71.1971 14.9447 72.6638 14.226C74.1451 13.5073 75.8611 13.148 77.8118 13.148C79.7771 13.148 81.4931 13.5073 82.9598 14.226C84.4264 14.9447 85.5704 15.9493 86.3918 17.24C87.2131 18.5307 87.6238 20.034 87.6238 21.75C87.6238 23.466 87.2131 24.9693 86.3918 26.26C85.5704 27.5507 84.4264 28.5553 82.9598 29.274C81.4931 29.9927 79.7771 30.352 77.8118 30.352ZM77.8118 26.282C78.8824 26.282 79.8064 26.0987 80.5838 25.732C81.3611 25.3653 81.9551 24.8447 82.3658 24.17C82.7911 23.4953 83.0038 22.6887 83.0038 21.75C83.0038 20.8113 82.7911 20.0047 82.3658 19.33C81.9551 18.6553 81.3611 18.1347 80.5838 17.768C79.8064 17.4013 78.8824 17.218 77.8118 17.218C76.7558 17.218 75.8391 17.4013 75.0618 17.768C74.2844 18.1347 73.6831 18.6553 73.2578 19.33C72.8324 20.0047 72.6198 20.8113 72.6198 21.75C72.6198 22.6887 72.8324 23.4953 73.2578 24.17C73.6831 24.8447 74.2844 25.3653 75.0618 25.732C75.8391 26.0987 76.7558 26.282 77.8118 26.282ZM105.264 26.81L103.856 27.096V13.5H108.278V30H102.536L93.0103 16.426L94.3963 16.14V30H89.9743V13.5H95.8703L105.264 26.81ZM110.603 24.588H115.245C115.319 25.0427 115.531 25.4387 115.883 25.776C116.235 26.1133 116.705 26.3773 117.291 26.568C117.893 26.744 118.597 26.832 119.403 26.832C120.518 26.832 121.398 26.6927 122.043 26.414C122.689 26.1207 123.011 25.6953 123.011 25.138C123.011 24.7127 122.828 24.3827 122.461 24.148C122.095 23.9133 121.391 23.7447 120.349 23.642L117.269 23.356C114.996 23.1507 113.346 22.6373 112.319 21.816C111.293 20.98 110.779 19.858 110.779 18.45C110.779 17.306 111.109 16.338 111.769 15.546C112.444 14.754 113.383 14.16 114.585 13.764C115.803 13.3533 117.218 13.148 118.831 13.148C120.415 13.148 121.823 13.3753 123.055 13.83C124.287 14.27 125.263 14.9007 125.981 15.722C126.715 16.5433 127.111 17.4967 127.169 18.582H122.549C122.491 18.186 122.3 17.8487 121.977 17.57C121.669 17.2767 121.244 17.0567 120.701 16.91C120.159 16.7487 119.506 16.668 118.743 16.668C117.717 16.668 116.903 16.8073 116.301 17.086C115.7 17.35 115.399 17.746 115.399 18.274C115.399 18.6553 115.575 18.9633 115.927 19.198C116.294 19.4327 116.947 19.594 117.885 19.682L121.163 20.012C122.733 20.1587 123.987 20.4153 124.925 20.782C125.864 21.134 126.546 21.6253 126.971 22.256C127.397 22.8867 127.609 23.6713 127.609 24.61C127.609 25.7687 127.265 26.7807 126.575 27.646C125.886 28.4967 124.918 29.164 123.671 29.648C122.425 30.1173 120.973 30.352 119.315 30.352C117.614 30.352 116.111 30.1173 114.805 29.648C113.515 29.164 112.503 28.4893 111.769 27.624C111.036 26.744 110.647 25.732 110.603 24.588ZM134.482 15.502H139.058V30H134.482V15.502ZM128.19 13.5H145.35V17.548H128.19V13.5ZM150.462 20.716H156.468C157.201 20.716 157.773 20.5473 158.184 20.21C158.595 19.8727 158.8 19.4033 158.8 18.802C158.8 18.186 158.595 17.7167 158.184 17.394C157.773 17.0567 157.201 16.888 156.468 16.888H149.824L151.87 14.71V30H147.316V13.5H157.106C158.367 13.5 159.467 13.7273 160.406 14.182C161.345 14.622 162.078 15.238 162.606 16.03C163.134 16.8073 163.398 17.7313 163.398 18.802C163.398 19.8433 163.134 20.76 162.606 21.552C162.078 22.344 161.345 22.96 160.406 23.4C159.467 23.84 158.367 24.06 157.106 24.06H150.462V20.716ZM152.926 22.278H158.052L163.97 30H158.69L152.926 22.278ZM170.256 22.63C170.256 23.378 170.395 24.0307 170.674 24.588C170.967 25.1307 171.392 25.5487 171.95 25.842C172.522 26.1353 173.218 26.282 174.04 26.282C174.876 26.282 175.572 26.1353 176.13 25.842C176.687 25.5487 177.105 25.1307 177.384 24.588C177.662 24.0307 177.802 23.378 177.802 22.63V13.5H182.378V22.85C182.378 24.3607 182.026 25.6807 181.322 26.81C180.632 27.9247 179.664 28.7973 178.418 29.428C177.171 30.044 175.712 30.352 174.04 30.352C172.382 30.352 170.923 30.044 169.662 29.428C168.415 28.7973 167.44 27.9247 166.736 26.81C166.046 25.6807 165.702 24.3607 165.702 22.85V13.5H170.256V22.63ZM203.562 23.092C203.401 24.544 202.902 25.82 202.066 26.92C201.23 28.0053 200.13 28.8487 198.766 29.45C197.417 30.0513 195.862 30.352 194.102 30.352C192.181 30.352 190.501 29.9927 189.064 29.274C187.627 28.5553 186.505 27.5507 185.698 26.26C184.906 24.9693 184.51 23.466 184.51 21.75C184.51 20.034 184.906 18.5307 185.698 17.24C186.505 15.9493 187.627 14.9447 189.064 14.226C190.501 13.5073 192.181 13.148 194.102 13.148C195.862 13.148 197.417 13.4487 198.766 14.05C200.13 14.6513 201.23 15.502 202.066 16.602C202.902 17.6873 203.401 18.956 203.562 20.408H198.986C198.839 19.704 198.553 19.11 198.128 18.626C197.703 18.1273 197.145 17.746 196.456 17.482C195.781 17.218 194.997 17.086 194.102 17.086C193.075 17.086 192.188 17.2767 191.44 17.658C190.692 18.0247 190.12 18.56 189.724 19.264C189.328 19.9533 189.13 20.782 189.13 21.75C189.13 22.718 189.328 23.554 189.724 24.258C190.12 24.9473 190.692 25.4827 191.44 25.864C192.188 26.2307 193.075 26.414 194.102 26.414C194.997 26.414 195.781 26.2893 196.456 26.04C197.145 25.7907 197.703 25.4167 198.128 24.918C198.553 24.4193 198.839 23.8107 198.986 23.092H203.562Z" fill="white"/>
<defs>
<clipPath id="clip0_240_67">
<rect width="41" height="42" fill="white"/>
</clipPath>
</defs>
</svg>
