<svg width="206" height="42" viewBox="0 0 206 42" fill="none" xmlns="http://www.w3.org/2000/svg">
<g clip-path="url(#clip0_410_5944)">
<path fill-rule="evenodd" clip-rule="evenodd" d="M20.495 -0.000258574C22.8729 -0.0744635 23.4863 2.30937 25.7509 3.03287C28.0156 3.75637 31.0823 2.70822 33.0545 4.01608C35.0266 5.32395 34.1019 7.60575 35.4985 9.50725C36.895 11.3995 40.0089 12.3178 40.8204 14.5161C41.6319 16.7144 39.5088 18.0223 39.5088 20.3597C39.5088 22.6972 41.481 25.2387 40.8204 27.4834C40.1599 29.7281 37.6688 29.5704 36.2722 31.4626C34.8757 33.3549 34.9417 36.555 33.0639 37.9834C31.1861 39.4211 29.2612 37.8443 27.0059 38.5678C24.7413 39.2913 22.8823 41.9163 20.5139 41.9905C19.0984 42.0368 18.3058 41.2113 17.4283 40.3858C17.466 35.3955 19.5325 30.8783 22.8729 27.5947C26.0434 24.4781 30.2237 22.6044 34.6775 22.2891C34.3755 25.517 32.9129 28.5779 30.5728 30.8783C28.6761 32.7427 26.251 34.0784 23.5334 34.6535C25.1753 30.8597 27.1475 28.244 29.95 25.5726C27.6476 26.4816 25.6094 27.873 23.9675 29.6261C21.8349 31.8986 20.5327 34.4865 20.0043 37.464C20.1836 37.4732 20.3535 37.4732 20.5139 37.4732C25.147 37.4732 29.3367 35.6274 32.3751 32.6499C35.4135 29.6632 37.2819 25.5448 37.2819 20.9905V19.7383C31.1767 19.7383 25.9302 21.0461 21.0612 25.8231C19.7307 27.1309 18.57 28.6243 17.6358 30.2383C15.7486 29.6724 14.1067 28.5686 12.8895 27.1031C11.5024 25.4428 10.6814 23.3094 10.6814 20.9905C10.6814 18.3191 11.7854 15.9074 13.5594 14.1543C15.3429 12.4012 17.7963 11.3253 20.5139 11.3253C22.5238 11.3253 24.4016 11.9189 25.9585 12.93C27.5627 13.9781 28.8271 15.4807 29.5914 17.2524L29.9972 18.2078L31.0352 17.9852C31.724 17.8368 32.4317 17.7162 33.1489 17.6327C33.8849 17.5492 34.5926 17.4843 35.2814 17.4657L36.9894 17.4101L36.4609 15.8239C35.3475 12.4847 33.1772 9.62783 30.3463 7.60575C27.5532 5.67642 24.1657 4.51697 20.495 4.51697C15.8619 4.51697 11.6722 6.36282 8.63378 9.34957C5.59534 12.327 3.72699 16.4547 3.72699 21.009C3.72699 24.8213 5.04805 28.3368 7.26554 31.138C9.28487 33.6795 12.0402 35.6274 15.2202 36.6663C15.0787 37.399 14.9749 38.1411 14.9182 38.8924C12.6913 38.3544 9.81329 39.2542 7.9355 38.002C5.96335 36.6941 6.88809 34.4123 5.49155 32.5201C4.10443 30.6093 0.990509 29.691 0.179002 27.4834C-0.632506 25.2851 1.49062 23.9772 1.49062 21.6398C1.49062 19.3023 -0.481527 16.7608 0.179002 14.5161C0.839531 12.2714 3.33067 12.4291 4.72722 10.5368C6.12377 8.64462 6.05771 5.44453 7.9355 4.01608C9.81329 2.58764 11.7383 4.15522 13.9935 3.43172C16.2676 2.70822 18.1171 0.0739464 20.495 -0.000258574ZM16.4846 32.5108C14.2766 31.7687 12.3422 30.4238 10.8984 28.6892C9.15277 26.5929 8.11479 23.9123 8.11479 20.9997C8.11479 17.642 9.5019 14.5996 11.7383 12.392C13.9841 10.1936 17.0791 8.83013 20.495 8.83013C23.0239 8.83013 25.3735 9.58146 27.3362 10.8615C29.0724 11.9931 30.4973 13.5421 31.4692 15.3602C31.9127 15.286 32.3657 15.221 32.8092 15.1654C32.9979 15.1376 33.196 15.119 33.3942 15.1004C32.3657 12.93 30.7804 11.0563 28.8177 9.66494C26.4775 8.0046 23.6089 7.02139 20.495 7.02139C16.5696 7.02139 13.0121 8.58897 10.4361 11.1119C7.86001 13.6349 6.26531 17.1411 6.26531 20.9997C6.26531 24.2462 7.38821 27.2237 9.25656 29.589C10.9268 31.6945 13.2103 33.327 15.8335 34.2175C16.0411 33.6331 16.2582 33.0673 16.4846 32.5108Z" fill="#566DFB"/>
</g>
<path d="M50.7011 30V13.5H55.2331V26.37L54.0231 25.424L63.3731 13.5H68.1911L54.8151 30H50.7011ZM58.5771 22.124L61.9211 19.352L68.4111 30H63.2411L58.5771 22.124ZM77.812 30.352C75.8613 30.352 74.1453 29.9927 72.664 29.274C71.1973 28.5553 70.0533 27.5507 69.232 26.26C68.4253 24.9693 68.022 23.466 68.022 21.75C68.022 20.034 68.4253 18.5307 69.232 17.24C70.0533 15.9493 71.1973 14.9447 72.664 14.226C74.1453 13.5073 75.8613 13.148 77.812 13.148C79.7773 13.148 81.4933 13.5073 82.96 14.226C84.4267 14.9447 85.5707 15.9493 86.392 17.24C87.2133 18.5307 87.624 20.034 87.624 21.75C87.624 23.466 87.2133 24.9693 86.392 26.26C85.5707 27.5507 84.4267 28.5553 82.96 29.274C81.4933 29.9927 79.7773 30.352 77.812 30.352ZM77.812 26.282C78.8827 26.282 79.8067 26.0987 80.584 25.732C81.3613 25.3653 81.9553 24.8447 82.366 24.17C82.7913 23.4953 83.004 22.6887 83.004 21.75C83.004 20.8113 82.7913 20.0047 82.366 19.33C81.9553 18.6553 81.3613 18.1347 80.584 17.768C79.8067 17.4013 78.8827 17.218 77.812 17.218C76.756 17.218 75.8393 17.4013 75.062 17.768C74.2847 18.1347 73.6833 18.6553 73.258 19.33C72.8327 20.0047 72.62 20.8113 72.62 21.75C72.62 22.6887 72.8327 23.4953 73.258 24.17C73.6833 24.8447 74.2847 25.3653 75.062 25.732C75.8393 26.0987 76.756 26.282 77.812 26.282ZM105.265 26.81L103.857 27.096V13.5H108.279V30H102.537L93.0106 16.426L94.3966 16.14V30H89.9746V13.5H95.8706L105.265 26.81ZM110.604 24.588H115.246C115.319 25.0427 115.532 25.4387 115.884 25.776C116.236 26.1133 116.705 26.3773 117.292 26.568C117.893 26.744 118.597 26.832 119.404 26.832C120.518 26.832 121.398 26.6927 122.044 26.414C122.689 26.1207 123.012 25.6953 123.012 25.138C123.012 24.7127 122.828 24.3827 122.462 24.148C122.095 23.9133 121.391 23.7447 120.35 23.642L117.27 23.356C114.996 23.1507 113.346 22.6373 112.32 21.816C111.293 20.98 110.78 19.858 110.78 18.45C110.78 17.306 111.11 16.338 111.77 15.546C112.444 14.754 113.383 14.16 114.586 13.764C115.803 13.3533 117.218 13.148 118.832 13.148C120.416 13.148 121.824 13.3753 123.056 13.83C124.288 14.27 125.263 14.9007 125.982 15.722C126.715 16.5433 127.111 17.4967 127.17 18.582H122.55C122.491 18.186 122.3 17.8487 121.978 17.57C121.67 17.2767 121.244 17.0567 120.702 16.91C120.159 16.7487 119.506 16.668 118.744 16.668C117.717 16.668 116.903 16.8073 116.302 17.086C115.7 17.35 115.4 17.746 115.4 18.274C115.4 18.6553 115.576 18.9633 115.928 19.198C116.294 19.4327 116.947 19.594 117.886 19.682L121.164 20.012C122.733 20.1587 123.987 20.4153 124.926 20.782C125.864 21.134 126.546 21.6253 126.972 22.256C127.397 22.8867 127.61 23.6713 127.61 24.61C127.61 25.7687 127.265 26.7807 126.576 27.646C125.886 28.4967 124.918 29.164 123.672 29.648C122.425 30.1173 120.973 30.352 119.316 30.352C117.614 30.352 116.111 30.1173 114.806 29.648C113.515 29.164 112.503 28.4893 111.77 27.624C111.036 26.744 110.648 25.732 110.604 24.588ZM134.482 15.502H139.058V30H134.482V15.502ZM128.19 13.5H145.35V17.548H128.19V13.5ZM150.462 20.716H156.468C157.202 20.716 157.774 20.5473 158.184 20.21C158.595 19.8727 158.8 19.4033 158.8 18.802C158.8 18.186 158.595 17.7167 158.184 17.394C157.774 17.0567 157.202 16.888 156.468 16.888H149.824L151.87 14.71V30H147.316V13.5H157.106C158.368 13.5 159.468 13.7273 160.406 14.182C161.345 14.622 162.078 15.238 162.606 16.03C163.134 16.8073 163.398 17.7313 163.398 18.802C163.398 19.8433 163.134 20.76 162.606 21.552C162.078 22.344 161.345 22.96 160.406 23.4C159.468 23.84 158.368 24.06 157.106 24.06H150.462V20.716ZM152.926 22.278H158.052L163.97 30H158.69L152.926 22.278ZM170.256 22.63C170.256 23.378 170.395 24.0307 170.674 24.588C170.967 25.1307 171.393 25.5487 171.95 25.842C172.522 26.1353 173.219 26.282 174.04 26.282C174.876 26.282 175.573 26.1353 176.13 25.842C176.687 25.5487 177.105 25.1307 177.384 24.588C177.663 24.0307 177.802 23.378 177.802 22.63V13.5H182.378V22.85C182.378 24.3607 182.026 25.6807 181.322 26.81C180.633 27.9247 179.665 28.7973 178.418 29.428C177.171 30.044 175.712 30.352 174.04 30.352C172.383 30.352 170.923 30.044 169.662 29.428C168.415 28.7973 167.44 27.9247 166.736 26.81C166.047 25.6807 165.702 24.3607 165.702 22.85V13.5H170.256V22.63ZM203.562 23.092C203.401 24.544 202.902 25.82 202.066 26.92C201.23 28.0053 200.13 28.8487 198.766 29.45C197.417 30.0513 195.862 30.352 194.102 30.352C192.181 30.352 190.502 29.9927 189.064 29.274C187.627 28.5553 186.505 27.5507 185.698 26.26C184.906 24.9693 184.51 23.466 184.51 21.75C184.51 20.034 184.906 18.5307 185.698 17.24C186.505 15.9493 187.627 14.9447 189.064 14.226C190.502 13.5073 192.181 13.148 194.102 13.148C195.862 13.148 197.417 13.4487 198.766 14.05C200.13 14.6513 201.23 15.502 202.066 16.602C202.902 17.6873 203.401 18.956 203.562 20.408H198.986C198.84 19.704 198.554 19.11 198.128 18.626C197.703 18.1273 197.146 17.746 196.456 17.482C195.782 17.218 194.997 17.086 194.102 17.086C193.076 17.086 192.188 17.2767 191.44 17.658C190.692 18.0247 190.12 18.56 189.724 19.264C189.328 19.9533 189.13 20.782 189.13 21.75C189.13 22.718 189.328 23.554 189.724 24.258C190.12 24.9473 190.692 25.4827 191.44 25.864C192.188 26.2307 193.076 26.414 194.102 26.414C194.997 26.414 195.782 26.2893 196.456 26.04C197.146 25.7907 197.703 25.4167 198.128 24.918C198.554 24.4193 198.84 23.8107 198.986 23.092H203.562Z" fill="white"/>
<defs>
<clipPath id="clip0_410_5944">
<rect width="41" height="42" fill="white"/>
</clipPath>
</defs>
</svg>
