<svg width="119" height="106" viewBox="0 0 119 106" fill="none" xmlns="http://www.w3.org/2000/svg">
<path d="M84.8787 57.1097H84.384C80.6531 57.1097 77.6178 54.323 77.6178 50.8977V47.318C80.6923 50.0738 83.183 53.3908 84.8787 57.1097ZM81.7642 86.947C81.3222 86.6237 80.6786 86.6906 80.3265 87.0966C75.8477 92.259 69.7692 95.8193 62.9942 97.4027L60.9998 95.5718C59.5931 94.2804 57.7228 93.5691 55.7334 93.5691C53.744 93.5691 51.8737 94.2804 50.4678 95.5711L48.1685 97.6774C33.5274 94.8091 22.5115 82.8467 22.5115 68.5625C22.5115 65.2133 23.1259 61.9953 24.2417 58.9882H38.6534C48.1997 58.9882 55.9663 51.8583 55.9663 43.0944V38.8094C63.3065 39.0237 70.1543 41.5295 75.5716 45.6313V50.8977C75.5716 55.3589 79.5248 58.9883 84.384 58.9883H85.6543C86.0655 60.0976 86.4128 61.2358 86.6804 62.4037C86.7967 62.9113 87.3396 63.2364 87.8921 63.1296C88.4451 63.0228 88.7991 62.5248 88.6828 62.0171C85.3504 47.4692 71.1608 36.9102 54.9432 36.9102C35.932 36.9102 20.4653 51.1094 20.4653 68.5625C20.4653 86.0155 35.932 100.214 54.9432 100.214C65.5046 100.214 75.3399 95.8597 81.9272 88.2669C82.2791 87.8611 82.2062 87.2701 81.7642 86.947ZM53.92 38.8125V43.0945C53.92 50.8225 47.0715 57.1098 38.6534 57.1098H25.0102C29.7832 46.6352 40.8961 39.1858 53.92 38.8125ZM50.6414 98.0659L51.914 96.9001C52.9342 95.9635 54.2906 95.4476 55.7334 95.4476C57.1763 95.4476 58.5327 95.9635 59.5529 96.9001L60.6189 97.8787C58.7636 98.1783 56.8668 98.3359 54.9431 98.3359C53.484 98.3359 52.05 98.2382 50.6414 98.0659Z" fill="#FF792D"/>
<path d="M86.8714 73.8168C86.7899 74.237 86.6989 74.654 86.5984 75.0679C86.4756 75.5743 86.8231 76.0761 87.3746 76.189C87.4495 76.2043 87.5243 76.2117 87.598 76.2117C88.0668 76.2117 88.4896 75.9139 88.5957 75.4764C88.7025 75.0364 88.7994 74.5929 88.886 74.1461C88.985 73.6354 88.6144 73.1477 88.0581 73.0567C87.5016 72.9657 86.9705 73.3061 86.8714 73.8168Z" fill="#FF792D"/>
<path d="M102.466 84.8765C102.738 84.051 102.494 83.1595 101.83 82.5501C100.48 81.3109 98.5575 80.7779 96.6877 81.1243L92.0366 81.9845L82.461 73.1941L94.9741 70.8797C96.163 70.6595 97.1192 69.8606 97.4698 68.7948C97.8201 67.729 97.5051 66.5779 96.6476 65.7907C94.7596 64.0574 92.0696 63.3121 89.4527 63.7965L75.1133 66.4482L70.4633 62.1798C68.3663 60.2543 65.736 58.8886 62.8564 58.2304C61.7423 57.9762 60.5925 58.2692 59.7807 59.0147C58.9689 59.76 58.6496 60.8155 58.9268 61.8383C59.6436 64.4816 61.131 66.8964 63.2282 68.8217L67.8782 73.0903L64.9892 86.2546C64.4615 88.6571 65.2737 91.1264 67.1619 92.8599C68.0195 93.6472 69.2733 93.9363 70.4342 93.6145C71.5953 93.2926 72.4654 92.4146 72.705 91.323L75.2259 79.8361L84.8015 88.6265L83.8642 92.8964C83.4873 94.6137 84.0679 96.3785 85.4174 97.6174C85.9023 98.0624 86.5506 98.3018 87.2151 98.3018C87.4612 98.3018 87.7095 98.2689 87.9526 98.2015C88.8515 97.9521 89.5252 97.2722 89.7107 96.4271L91.5253 88.1574L100.533 86.4911C101.454 86.3209 102.195 85.7022 102.466 84.8765ZM100.508 84.3336C100.482 84.4124 100.393 84.6008 100.129 84.6496L90.4545 86.4392C90.0507 86.5139 89.735 86.8038 89.6537 87.1745L87.7047 96.0561C87.6516 96.298 87.4465 96.3794 87.3607 96.4032C87.2749 96.427 87.0545 96.4637 86.8641 96.2889C86.0005 95.4961 85.6288 94.3666 85.8701 93.2674L86.9158 88.504C86.9835 88.1956 86.8786 87.8766 86.6363 87.6542L75.3233 77.2689C75.1286 77.0901 74.8672 76.9938 74.5998 76.9938C74.5011 76.9938 74.4014 77.0069 74.3041 77.0339C73.9431 77.1339 73.6714 77.4082 73.5969 77.7475L70.699 90.9519C70.6073 91.3698 70.2872 91.6929 69.8427 91.8161C69.3984 91.9395 68.9372 91.8329 68.6089 91.5315C67.2065 90.2441 66.6032 88.4101 66.9951 86.6259C66.9951 86.6258 66.9951 86.6258 66.9951 86.6257L69.9925 72.9677C70.0601 72.6593 69.9552 72.3404 69.7129 72.118L64.6751 67.4934C62.8406 65.8092 61.5395 63.6969 60.9125 61.3846C60.8087 61.0017 60.9236 60.622 61.2276 60.3429C61.5317 60.0636 61.9454 59.9581 62.3623 60.0533C64.8811 60.6291 67.1819 61.8236 69.0163 63.508L74.0543 68.1325C74.2966 68.3549 74.644 68.4513 74.9797 68.3891L89.857 65.6379C91.8009 65.2776 93.7985 65.8316 95.2007 67.1189C95.529 67.4203 95.6449 67.8438 95.5108 68.2518C95.3766 68.6599 95.0248 68.9539 94.5697 69.0381L80.1859 71.6985C79.8163 71.7668 79.5176 72.0163 79.4085 72.3477C79.2996 72.6791 79.3979 73.0386 79.6646 73.2834L90.9776 83.6688C91.2197 83.8911 91.5671 83.9875 91.9031 83.9254L97.0921 82.9657C98.2886 82.7444 99.5189 83.0852 100.383 83.8785C100.573 84.053 100.533 84.2549 100.508 84.3336Z" fill="#FF792D"/>
<path d="M110.05 20.5552H76.9775L96.8538 2.3075C97.2534 1.94067 97.2534 1.346 96.8538 0.979165C96.4543 0.612414 95.8065 0.612414 95.4069 0.979165L74.0837 20.5552H44.4882L23.1643 0.979165C22.7647 0.612414 22.1169 0.612414 21.7174 0.979165C21.3178 1.346 21.3178 1.94067 21.7174 2.3075L41.5944 20.5552H8.52158C3.98027 20.5552 0.285645 23.9468 0.285645 28.1154V98.1433C0.285645 102.312 3.98027 105.704 8.52158 105.704H110.05C114.591 105.704 118.286 102.312 118.286 98.1433V28.1154C118.286 23.9468 114.591 20.5552 110.05 20.5552ZM116.239 98.1433C116.239 101.277 113.463 103.826 110.05 103.826H8.52158C5.10859 103.826 2.33189 101.277 2.33189 98.1433V28.1154C2.33189 24.9826 5.10859 22.4337 8.52158 22.4337H110.05C113.463 22.4337 116.239 24.9825 116.239 28.1154V98.1433Z" fill="#FF792D"/>
<path d="M33.4038 84.7873C34.3938 86.0173 35.9171 86.7228 37.583 86.7228H50.0564C53.3455 86.7228 56.0215 84.266 56.0215 81.2462C56.0215 73.6533 49.2927 67.4761 41.0219 67.4761H36.6033C34.7811 67.4761 33.128 68.3223 32.1811 69.7399C31.2212 71.1769 31.135 72.9137 31.9507 74.3857C33.0478 76.3656 33.284 78.5552 32.6159 80.5513C32.1266 82.0132 32.4138 83.5572 33.4038 84.7873ZM33.9255 70.7218C34.5059 69.853 35.4819 69.3546 36.6032 69.3546H41.0218C48.1643 69.3546 53.9752 74.6893 53.9752 81.2466C53.9752 83.2303 52.2172 84.8442 50.0563 84.8442H37.583C36.5731 84.8442 35.6497 84.4166 35.0495 83.6709C34.4493 82.9253 34.2753 81.9893 34.5719 81.103C35.3967 78.6386 35.1135 75.9505 33.7745 73.534C33.2841 72.6488 33.3405 71.5976 33.9255 70.7218Z" fill="#FF792D"/>
<path d="M100.307 29.1309H18.2642C14.0039 29.1309 10.5378 32.3129 10.5378 36.224V90.0352C10.5378 93.9463 14.0039 97.1283 18.2642 97.1283H25.2521C25.8171 97.1283 26.2752 96.7078 26.2752 96.189C26.2752 95.6703 25.8171 95.2497 25.2521 95.2497H18.2642C15.1322 95.2497 12.5841 92.9105 12.5841 90.0352V36.224C12.5841 33.3486 15.1322 31.0094 18.2642 31.0094H100.307C103.439 31.0094 105.987 33.3487 105.987 36.224V90.0352C105.987 92.9105 103.439 95.2497 100.307 95.2497H98.5125C97.9474 95.2497 97.4893 95.6703 97.4893 96.189C97.4893 96.7078 97.9474 97.1283 98.5125 97.1283H100.307C104.567 97.1283 108.033 93.9463 108.033 90.0352V36.224C108.033 32.3129 104.567 29.1309 100.307 29.1309Z" fill="#FF792D"/>
</svg>
