<svg width="99" height="106" viewBox="0 0 99 106" fill="none" xmlns="http://www.w3.org/2000/svg">
<path d="M51.6308 59.4854H1.14085C0.599543 59.4854 0.160645 59.9462 0.160645 60.5149V104.535C0.160645 105.104 0.599501 105.565 1.14085 105.565H51.6308C52.1721 105.565 52.611 105.104 52.611 104.535V60.5149C52.611 59.9462 52.1721 59.4854 51.6308 59.4854ZM19.2827 61.5444H33.4889V87.2551L27.1355 82.4397C26.7991 82.1849 26.3463 82.1799 26.0048 82.4277L19.2827 87.3051V61.5444ZM50.6506 103.506H2.12106V61.5444H17.3223V89.2675C17.5096 90.2008 18.0221 90.4831 18.8597 90.1144L26.5496 84.5348L33.8955 90.1024C34.486 90.5496 35.4494 90.1531 35.4494 89.2675V61.5444H50.6506V103.506Z" fill="#FF792D"/>
<path d="M88.7309 76.7124C77.0168 76.7124 67.4868 86.7207 67.4868 99.0227C67.4868 99.5913 67.9257 100.052 68.467 100.052C69.0083 100.052 69.4472 99.5914 69.4472 99.0227C69.4472 87.8559 78.0978 78.7714 88.7309 78.7714C89.2722 78.7714 89.7111 78.3105 89.7111 77.7419C89.711 77.1733 89.2722 76.7124 88.7309 76.7124Z" fill="#FF792D"/>
<path d="M87.8707 0.564941H31.3017C25.325 0.564941 20.4625 5.67165 20.4625 11.9484V37.2437H6.68421C6.1429 37.2437 5.704 37.7046 5.704 38.2733C5.704 38.8419 6.1429 39.3028 6.68421 39.3028H10.34V44.645C10.34 44.6466 10.3396 44.6482 10.3396 44.6498C10.3396 49.9766 6.21306 54.3101 1.14085 54.3101C0.599543 54.3101 0.160645 54.7711 0.160645 55.3397C0.160645 55.9083 0.599501 56.3692 1.14085 56.3692C5.66563 56.3692 9.57013 53.5259 11.3198 49.4517C13.0697 53.5259 16.9745 56.3692 21.4995 56.3692C22.0408 56.3692 22.4797 55.9083 22.4797 55.3397C22.4797 54.7711 22.0409 54.3101 21.4995 54.3101C16.4281 54.3101 12.3021 49.9787 12.3001 44.6538C12.3001 44.6524 12.3004 44.6512 12.3004 44.6498V39.3028H40.4712V44.6461C40.4712 44.6474 40.4708 44.6486 40.4708 44.6498C40.4708 49.9766 36.3442 54.3101 31.272 54.3101C30.7307 54.3101 30.2918 54.771 30.2918 55.3396C30.2918 55.9082 30.7306 56.3692 31.272 56.3692C35.7968 56.3692 39.7013 53.5258 41.451 49.4516C43.2009 53.5259 47.1058 56.3692 51.6307 56.3692C52.172 56.3692 52.6109 55.9083 52.6109 55.3396C52.6109 54.771 52.1721 54.3101 51.6307 54.3101C46.559 54.3101 42.4328 49.9782 42.4313 44.6527C42.4313 44.6517 42.4316 44.6508 42.4316 44.6497V39.3027H46.0874C46.6287 39.3027 47.0676 38.8418 47.0676 38.2732C47.0676 37.7046 46.6287 37.2436 46.0874 37.2436H32.3091V23.3316H77.0314V73.6366C66.6698 79.6517 59.6365 91.2464 59.6365 104.535C59.6365 105.104 60.0754 105.565 60.6167 105.565H97.7296C98.2709 105.565 98.7098 105.104 98.7098 104.535V70.2847V11.9484C98.7098 5.67169 93.8474 0.565073 87.8707 0.564941ZM22.4229 37.2437V18.4659C24.2131 21.1475 27.0737 22.984 30.3487 23.2851V37.2437L22.4229 37.2437ZM31.3017 21.2727C26.4059 21.2727 22.4229 17.0898 22.4229 11.9483C22.4229 6.80686 26.4059 2.62394 31.3017 2.62394H81.6643C78.866 4.68446 77.0315 8.09469 77.0315 11.9483V21.2727H31.3017ZM78.9918 11.9484C78.9918 6.80691 82.9748 2.62398 87.8707 2.62398C92.7664 2.62398 96.7494 6.80691 96.7494 11.9484V69.2553H93.2302C88.143 69.2553 83.3175 70.4512 78.9919 72.5859L78.9918 11.9484ZM96.7494 103.506H61.612C62.1316 85.6621 76.1155 71.3143 93.2302 71.3143H96.7494V103.506Z" fill="#FF792D"/>
<path d="M32.0134 6.75439C30.7188 6.75439 29.5017 7.2838 28.5864 8.2453H28.5865C27.6711 9.20654 27.167 10.4845 27.167 11.8443C27.167 13.2039 27.6711 14.4818 28.5864 15.4431C29.5017 16.4046 30.7188 16.934 32.0134 16.934C33.308 16.934 34.5251 16.4046 35.4403 15.4431C36.3557 14.4818 36.8599 13.2039 36.8599 11.8443C36.8599 10.4845 36.3558 9.20654 35.4404 8.2453C34.5251 7.2838 33.3079 6.75439 32.0134 6.75439ZM34.054 13.9874C33.5089 14.56 32.7842 14.8753 32.0133 14.8753C31.2425 14.8753 30.5177 14.56 29.9725 13.9874C29.4275 13.4149 29.1273 12.6537 29.1273 11.8443C29.1273 11.0347 29.4274 10.2736 29.9725 9.70098H29.9727C30.5177 9.12843 31.2425 8.81317 32.0133 8.81317C32.7842 8.81317 33.5089 9.12839 34.0541 9.70098C34.5992 10.2735 34.8994 11.0346 34.8994 11.8443C34.8994 12.6537 34.5992 13.4148 34.054 13.9874Z" fill="#FF792D"/>
<path d="M87.8707 7.22754C85.1982 7.22754 83.0242 9.51087 83.0242 12.3172C83.0242 15.1238 85.1982 17.4072 87.8707 17.4072C90.5431 17.4072 92.7171 15.1238 92.7171 12.3172C92.7171 9.51087 90.5431 7.22754 87.8707 7.22754ZM87.8707 15.3481C86.2792 15.3481 84.9845 13.9886 84.9845 12.3172C84.9845 10.6461 86.2792 9.28658 87.8707 9.28658C89.4621 9.28658 90.7568 10.6461 90.7568 12.3172C90.7568 13.9886 89.4621 15.3481 87.8707 15.3481Z" fill="#FF792D"/>
</svg>
