<svg width="119" height="106" viewBox="0 0 119 106" fill="none" xmlns="http://www.w3.org/2000/svg">
<path d="M99.6257 79.7056C99.3282 79.7056 99.0367 79.5785 98.8611 79.3423C98.583 78.9701 98.6994 78.4688 99.1215 78.2236C101.8 76.664 102.602 73.5548 100.947 71.146L90.3084 55.6604C90.0461 55.279 90.1839 54.7823 90.6157 54.5507C91.049 54.3199 91.6104 54.4407 91.8722 54.822L102.51 70.3077C104.678 73.4629 103.632 77.5322 100.128 79.5722C99.9732 79.6624 99.7982 79.7056 99.6257 79.7056Z" fill="#FF792D"/>
<path d="M107.086 76.4967C105.52 76.4967 103.99 75.7953 103.136 74.5395L82.1946 43.7711C81.5555 42.8327 81.3785 41.7338 81.696 40.6764C82.0145 39.6153 82.7892 38.7337 83.8772 38.1937L90.2952 35.0133C92.4739 33.9342 95.1871 34.5661 96.4742 36.4457L117.474 67.1051C118.113 68.0373 118.295 69.1307 117.987 70.1845C117.679 71.2411 116.916 72.1245 115.842 72.6708H115.841L109.364 75.9603C108.649 76.3235 107.863 76.4967 107.086 76.4967ZM92.554 36.1058C92.0927 36.1058 91.6237 36.2077 91.1903 36.4231L84.7724 39.6027C84.1197 39.9263 83.6552 40.4546 83.4643 41.0901C83.275 41.7212 83.3806 42.3774 83.7624 42.9381L104.704 73.7075C105.472 74.8371 107.152 75.2193 108.452 74.5594L114.93 71.27H114.929C115.574 70.9427 116.031 70.4136 116.216 69.7808C116.399 69.1515 116.291 68.4989 115.909 67.9417L94.9089 37.2823C94.3903 36.525 93.4875 36.1058 92.554 36.1058Z" fill="#FF792D"/>
<path d="M96.1803 50.6501C95.8695 50.6501 95.5663 50.5104 95.3948 50.258L89.9063 42.1798C89.6465 41.7976 89.7869 41.3009 90.2202 41.0719C90.654 40.8411 91.2159 40.9664 91.4752 41.3486L96.9637 49.4268C97.2235 49.809 97.0832 50.3057 96.6498 50.5347C96.5023 50.6132 96.3406 50.6501 96.1803 50.6501Z" fill="#FF792D"/>
<path d="M11.1808 76.4967C10.4036 76.4967 9.61803 76.3236 8.9025 75.9603L2.42594 72.6708C1.35059 72.1245 0.588132 71.242 0.279335 70.1845C-0.0283722 69.1307 0.153801 68.0372 0.791727 67.1051L21.7929 36.4457C23.0811 34.5643 25.7942 33.935 27.9719 35.0133L34.3899 38.1937C35.478 38.7337 36.2527 39.6153 36.5711 40.6764C36.8885 41.7338 36.7115 42.8327 36.0725 43.7711L15.1311 74.5404C14.2767 75.7953 12.7456 76.4967 11.1808 76.4967ZM25.7136 36.1058C24.7796 36.1058 23.8762 36.525 23.3582 37.2822L2.35704 67.9416C1.97581 68.4988 1.86707 69.1514 2.05079 69.7807C2.2355 70.4135 2.69234 70.9426 3.33744 71.2699L9.81455 74.5593C11.115 75.2193 12.7951 74.837 13.5632 73.7074L34.5047 42.9381C34.8865 42.3773 34.9921 41.7211 34.8028 41.09C34.6119 40.4545 34.1474 39.9262 33.4947 39.6026L27.0768 36.423C26.6434 36.2076 26.1744 36.1058 25.7136 36.1058Z" fill="#FF792D"/>
<path d="M22.087 50.65C21.9267 50.65 21.7649 50.613 21.6174 50.5346C21.1841 50.3057 21.0437 49.8089 21.3035 49.4267L26.7915 41.3485C27.0513 40.9663 27.6122 40.8401 28.0465 41.0718C28.4798 41.3007 28.6202 41.7975 28.3604 42.1797L22.8724 50.2579C22.7009 50.5102 22.3977 50.65 22.087 50.65Z" fill="#FF792D"/>
<path d="M85.7523 92.742C84.2778 92.742 82.8518 92.3057 81.6698 91.4809L66.271 80.7514C65.8745 80.4747 65.8066 79.9662 66.1194 79.6165C66.4328 79.2667 67.0075 79.2081 67.404 79.4821L82.8028 90.2124C83.8113 90.9147 85.0617 91.2248 86.3264 91.0959C87.6013 90.9607 88.746 90.3873 89.5493 89.4813C90.3802 88.5456 90.7467 87.3728 90.5813 86.181C90.4169 85.0001 89.7499 83.9517 88.7021 83.2314L74.1005 73.1826C73.7024 72.9085 73.631 72.401 73.9413 72.0485C74.2521 71.6951 74.8258 71.6338 75.2254 71.9079L89.8271 81.9567C91.2607 82.9438 92.1733 84.3736 92.3973 85.9846C92.6224 87.6054 92.1227 89.2011 90.9898 90.4784C89.8838 91.7242 88.3053 92.5139 86.544 92.6997C86.2795 92.7276 86.0151 92.742 85.7523 92.742Z" fill="#FF792D"/>
<path d="M76.6015 99.2009C75.175 99.2009 73.7409 98.8124 72.5379 98.0092L68.187 95.1082C67.7838 94.8396 67.7036 94.3329 68.0083 93.9768C68.312 93.6208 68.8856 93.5496 69.2894 93.8191L73.6403 96.7201C75.7283 98.1128 78.7679 97.8009 80.4149 96.0232C81.2295 95.1443 81.5928 94.0463 81.4383 92.9311C81.2821 91.8042 80.6186 90.8036 79.5703 90.1131C79.1656 89.8462 79.0824 89.3405 79.3841 88.9826C79.6867 88.6248 80.2604 88.5535 80.6646 88.8185C82.1166 89.775 83.0363 91.166 83.2542 92.7345C83.4706 94.2914 82.9648 95.823 81.8308 97.0472C80.5195 98.4616 78.5679 99.2009 76.6015 99.2009Z" fill="#FF792D"/>
<path d="M67.3081 105.641C65.8815 105.641 64.4475 105.253 63.2445 104.449L59.4775 101.937C59.0743 101.668 58.9941 101.162 59.2989 100.806C59.603 100.449 60.1777 100.379 60.5799 100.648L64.3469 103.16C66.4353 104.553 69.4745 104.241 71.1215 102.463C71.9366 101.585 72.3 100.486 72.1448 99.3705C71.9886 98.2436 71.3257 97.243 70.2774 96.5524C69.8727 96.2856 69.7895 95.7799 70.0911 95.422C70.3938 95.0641 70.9674 94.992 71.3716 95.2579C72.8237 96.2143 73.7433 97.6044 73.9607 99.1739C74.1771 100.732 73.6713 102.263 72.5373 103.487C71.2261 104.902 69.2745 105.641 67.3081 105.641Z" fill="#FF792D"/>
<path d="M31.2281 94.5781C30.9816 94.5781 30.734 94.5664 30.4855 94.5429C28.6798 94.3698 27.061 93.5855 25.9269 92.3334C25.9269 92.3334 25.9269 92.3334 25.9263 92.3334C23.6067 89.7723 24.0676 86.0104 26.9538 83.9469L37.0535 76.726C38.4667 75.7172 40.2423 75.2602 42.0454 75.4288C43.8521 75.6019 45.4715 76.388 46.6061 77.642C48.9257 80.2058 48.4633 83.9676 45.5772 86.0293L35.4745 93.2466C34.2571 94.1165 32.772 94.5781 31.2281 94.5781ZM27.3549 91.3238C28.1832 92.2379 29.3647 92.8103 30.6825 92.9365C31.9993 93.0591 33.294 92.7265 34.3239 91.9899L44.4267 84.7727C46.5329 83.268 46.8708 80.5231 45.1795 78.6525C44.3491 77.7348 43.1666 77.1615 41.8478 77.0353C40.5316 76.9091 39.2347 77.2453 38.2048 77.9827L28.1051 85.2036C25.9982 86.7091 25.6619 89.455 27.3553 91.3238H27.3549Z" fill="#FF792D"/>
<path d="M23.9002 86.5257C21.9205 86.5257 19.9576 85.7666 18.6225 84.3063C17.4839 83.0604 16.9643 81.4982 17.1587 79.907C17.3532 78.315 18.2387 76.8871 19.6519 75.8846L24.7117 72.2967C27.6172 70.2368 31.8839 70.6451 34.223 73.2054C35.3627 74.4539 35.8817 76.0162 35.6867 77.6082C35.4912 79.1993 34.6052 80.6273 33.191 81.6289L28.1302 85.2149C26.8838 86.0975 25.3874 86.5257 23.9002 86.5257ZM28.9452 72.5978C27.8591 72.5978 26.7665 72.9115 25.857 73.557L20.7971 77.1449C19.7657 77.876 19.1195 78.919 18.9777 80.0801C18.8352 81.2421 19.215 82.3825 20.0458 83.2911H20.0464C21.7515 85.1581 24.8653 85.4547 26.9853 83.9547L32.0461 80.3686C33.0781 79.6375 33.7253 78.5954 33.8676 77.4334C34.01 76.2723 33.6313 75.1319 32.8004 74.2223C31.8247 73.1531 30.3905 72.5978 28.9452 72.5978Z" fill="#FF792D"/>
<path d="M52.9045 105.686C50.9258 105.686 48.9629 104.927 47.6278 103.467C46.4886 102.221 45.9691 100.658 46.1635 99.0672C46.3579 97.4753 47.2435 96.0473 48.6566 95.0448L53.7159 91.4569C56.6215 89.398 60.8887 89.8054 63.2276 92.3656C64.3672 93.6142 64.8864 95.1764 64.6914 96.7685C64.4959 98.3596 63.6099 99.7875 62.1957 100.789L57.1344 104.374C55.8886 105.257 54.3922 105.686 52.9045 105.686ZM49.0507 102.451C50.7584 104.317 53.8706 104.615 55.9902 103.114L61.0514 99.5288C62.0829 98.7977 62.73 97.7555 62.8725 96.5935C63.0149 95.4324 62.6362 94.292 61.8053 93.3825C60.096 91.511 56.9818 91.2126 54.8612 92.7172L49.8019 96.3051C48.7704 97.0362 48.1243 98.0792 47.9824 99.2403C47.8401 100.402 48.2198 101.543 49.0507 102.451Z" fill="#FF792D"/>
<path d="M93.6151 84.9733C92.1937 84.9733 90.7642 84.5803 89.5643 83.7708L86.9042 81.9885C86.5016 81.719 86.423 81.2124 86.7281 80.8563C87.0339 80.5002 87.6075 80.4308 88.0097 80.7013L90.6728 82.4853C92.748 83.8853 95.7663 83.5716 97.4025 81.7848C98.2222 80.8906 98.5876 79.7763 98.4309 78.6486C98.2747 77.5217 97.6174 76.5201 96.5803 75.8287L67.6225 56.5226L50.812 68.6232C47.9019 70.692 43.6118 70.3062 41.2452 67.7631L40.5485 67.0149C39.3926 65.7744 38.8586 64.2095 39.046 62.6103C39.2328 61.012 40.1157 59.5795 41.5315 58.5753L56.0091 48.3047L62.9854 43.5476C66.5916 41.0884 71.2279 40.076 75.7104 40.7701C80.2017 41.4661 84.1835 43.8217 86.6354 47.232C86.9064 47.6078 86.7798 48.1073 86.3536 48.3471C85.9275 48.5851 85.3614 48.4751 85.0909 48.0974C82.9142 45.0702 79.3799 42.9788 75.394 42.3613C71.4187 41.7455 67.3036 42.6434 64.1031 44.8259L57.1407 49.574L42.6768 59.8355C41.6454 60.5666 41.0017 61.6115 40.8655 62.7762C40.7292 63.9428 41.1181 65.084 41.9612 65.9891L42.6579 66.7374C44.3916 68.5989 47.5329 68.8793 49.6606 67.3675L67.0233 54.8694C67.35 54.6342 67.8159 54.6269 68.1522 54.8514L97.6827 74.5398C99.1189 75.498 100.029 76.8872 100.247 78.4522C100.464 80.018 99.9595 81.5632 98.8255 82.8018C97.5194 84.2269 95.5749 84.9733 93.6151 84.9733Z" fill="#FF792D"/>
<path d="M40.5219 101.292C40.2754 101.292 40.0274 101.28 39.7783 101.257C37.9731 101.084 36.3542 100.298 35.2197 99.0462C32.9006 96.486 33.3615 92.7241 36.2466 90.6615L46.3468 83.4397C47.7589 82.4301 49.5284 81.965 51.3387 82.1425C53.1454 82.3156 54.7653 83.1008 55.8994 84.3557C58.219 86.9186 57.7566 90.6796 54.8705 92.7422L44.7677 99.9603C43.5504 100.829 42.0653 101.292 40.5219 101.292ZM50.5986 83.7229C49.4711 83.7229 48.3872 84.0601 47.4981 84.6956L37.3979 91.9174C35.2916 93.4228 34.9558 96.1678 36.6487 98.0366C37.4765 98.9507 38.6581 99.5241 39.9758 99.6502C41.2905 99.7747 42.5863 99.4411 43.6172 98.7037L53.72 91.4855C55.8263 89.9809 56.1642 87.2359 54.4728 85.3663C53.6419 84.4485 52.4599 83.8743 51.1411 83.7481C50.9599 83.731 50.7787 83.7229 50.5986 83.7229Z" fill="#FF792D"/>
<path d="M28.2578 54.4915C28.0981 54.4915 27.9363 54.4545 27.7888 54.377C27.3555 54.1471 27.2146 53.6513 27.474 53.2691L31.8672 46.791C34.0388 43.588 37.6701 41.3722 41.8291 40.7096C45.9881 40.0479 50.268 41.0034 53.5691 43.3337L58.9111 47.1047C59.3056 47.3832 59.37 47.8916 59.0546 48.2396C58.7391 48.5894 58.1629 48.6453 57.7689 48.3668L52.4269 44.5958C49.5381 42.5558 45.7915 41.721 42.1541 42.2989C38.5142 42.8794 35.3371 44.8185 33.437 47.6204L29.0438 54.0984C28.8723 54.3518 28.5692 54.4915 28.2578 54.4915Z" fill="#FF792D"/>
<path d="M19.3217 78.1245C19.1318 78.1245 18.9405 78.0731 18.7766 77.9649C15.5567 75.8528 14.7029 72.0052 16.7913 69.015L16.9312 68.8139C17.1971 68.4353 17.7611 68.319 18.1898 68.5507C18.6201 68.7851 18.7532 69.2827 18.4879 69.6631L18.348 69.8633C16.7623 72.1341 17.4156 75.0595 19.8679 76.6686C20.2731 76.9345 20.3578 77.4403 20.0567 77.7981C19.8769 78.0118 19.6009 78.1245 19.3217 78.1245Z" fill="#FF792D"/>
<path d="M76.0553 18.4439C75.5501 18.4439 75.1407 18.0824 75.1407 17.6361V7.51613L59.5908 2.35603L44.0404 7.51613V17.6361C44.0404 18.0823 43.6311 18.4439 43.1258 18.4439C42.6205 18.4439 42.2112 18.0824 42.2112 17.6361V6.95626C42.2112 6.61997 42.4475 6.31799 42.8043 6.19991L59.2693 0.736952C59.4765 0.668412 59.7051 0.668412 59.9124 0.736952L76.3769 6.19991C76.7336 6.31799 76.97 6.61997 76.97 6.95626V17.6361C76.9699 18.0823 76.5606 18.4439 76.0553 18.4439Z" fill="#FF792D"/>
<path d="M80.5527 9.2884C80.4455 9.2884 80.3368 9.2722 80.2306 9.23701L59.5147 2.35603L38.7984 9.23701C38.3269 9.39478 37.7986 9.18386 37.6199 8.7646C37.4423 8.34719 37.6817 7.88111 38.1543 7.72431L59.1927 0.736952C59.3999 0.668412 59.6296 0.668412 59.8368 0.736952L80.8747 7.72431C81.3474 7.88119 81.5867 8.34727 81.4091 8.7646C81.2708 9.08919 80.9227 9.2884 80.5527 9.2884Z" fill="#FF792D"/>
<path d="M92.5204 32.1773C92.5194 32.1773 92.5184 32.1773 92.5173 32.1773C92.0121 32.1755 91.6038 31.8131 91.6058 31.3668L91.6599 17.6336C91.6615 17.1883 92.0708 16.8286 92.5745 16.8286H92.5776C93.0828 16.8304 93.4912 17.1928 93.4891 17.6391L93.435 31.3723C93.4335 31.8176 93.0241 32.1773 92.5204 32.1773Z" fill="#FF792D"/>
<path d="M96.1792 18.4441H76.0553C75.5501 18.4441 75.1407 18.0826 75.1407 17.6363C75.1407 17.1902 75.55 16.8286 76.0553 16.8286H96.1791C96.6844 16.8286 97.0937 17.1901 97.0937 17.6363C97.0938 18.0825 96.6845 18.4441 96.1792 18.4441Z" fill="#FF792D"/>
<path d="M26.6614 32.1773C26.1576 32.1773 25.7483 31.8176 25.7468 31.3723L25.6921 17.6391C25.6901 17.1929 26.0984 16.8305 26.6037 16.8286H26.6067C27.1105 16.8286 27.5198 17.1883 27.5213 17.6336L27.576 31.3668C27.578 31.813 27.1697 32.1754 26.6645 32.1773C26.6635 32.1773 26.6624 32.1773 26.6614 32.1773Z" fill="#FF792D"/>
<path d="M43.1258 18.4441H23.0025C22.4973 18.4441 22.0879 18.0826 22.0879 17.6363C22.0879 17.1902 22.4972 16.8286 23.0025 16.8286H43.1258C43.631 16.8286 44.0404 17.1901 44.0404 17.6363C44.0404 18.0825 43.631 18.4441 43.1258 18.4441Z" fill="#FF792D"/>
<path d="M59.5907 39.4472C51.0166 39.4472 44.0408 33.2865 44.0408 25.7141C44.0408 18.1416 51.0165 11.981 59.5907 11.981C68.165 11.981 75.1407 18.1417 75.1407 25.7141C75.1407 33.2866 68.1649 39.4472 59.5907 39.4472ZM59.5907 13.5964C52.025 13.5964 45.87 19.0324 45.87 25.7141C45.87 32.3959 52.025 37.8319 59.5907 37.8319C67.1564 37.8319 73.3115 32.3959 73.3115 25.7141C73.3115 19.0324 67.1564 13.5964 59.5907 13.5964Z" fill="#FF792D"/>
<path d="M62.1752 33.782H57.0062C54.9004 33.782 53.1876 32.2693 53.1876 30.4096V28.9455C53.1876 28.4993 53.5969 28.1378 54.1022 28.1378C54.6075 28.1378 55.0168 28.4993 55.0168 28.9455V30.4096C55.0168 31.3787 55.9094 32.1665 57.0062 32.1665H62.1752C63.272 32.1665 64.1642 31.3787 64.1642 30.4096V28.3019C64.1642 27.3328 63.2721 26.5449 62.1752 26.5449H57.0062C54.9004 26.5449 53.1876 25.0322 53.1876 23.1725V21.0648C53.1876 19.2051 54.9004 17.6924 57.0062 17.6924H62.1752C64.2805 17.6924 65.9933 19.2051 65.9933 21.0648V22.4828C65.9933 22.929 65.584 23.2906 65.0787 23.2906C64.5733 23.2906 64.1641 22.9291 64.1641 22.4828V21.0648C64.1641 20.0957 63.272 19.3079 62.1751 19.3079H57.0061C55.9093 19.3079 55.0167 20.0957 55.0167 21.0648V23.1725C55.0167 24.1416 55.9093 24.9295 57.0061 24.9295H62.1751C64.2804 24.9295 65.9932 26.4422 65.9932 28.3019V30.4096C65.9933 32.2693 64.2805 33.782 62.1752 33.782Z" fill="#FF792D"/>
<path d="M59.5907 36.2155C59.0855 36.2155 58.6761 35.8541 58.6761 35.4078V16.0197C58.6761 15.5735 59.0854 15.2119 59.5907 15.2119C60.096 15.2119 60.5053 15.5734 60.5053 16.0197V35.4078C60.5053 35.854 60.096 36.2155 59.5907 36.2155Z" fill="#FF792D"/>
</svg>
