<svg width="22" height="22" viewBox="0 0 22 22" fill="none" xmlns="http://www.w3.org/2000/svg">
<path d="M18.4662 1.48242H3.51232C1.94883 1.48242 0.676758 2.75424 0.676758 4.31798V13.4694C0.676758 15.0297 1.94329 16.2995 3.50225 16.305V20.4578L9.47033 16.305H18.4662C20.0297 16.305 21.3018 15.0329 21.3018 13.4694V4.31798C21.3018 2.75424 20.0297 1.48242 18.4662 1.48242ZM20.0933 13.4694C20.0933 14.3665 19.3634 15.0965 18.4662 15.0965H9.09116L4.71074 18.1447V15.0965H3.51232C2.61514 15.0965 1.88525 14.3665 1.88525 13.4694V4.31798C1.88525 3.42067 2.61514 2.69092 3.51232 2.69092H18.4662C19.3634 2.69092 20.0933 3.42067 20.0933 4.31798V13.4694Z" fill="#FF792D"/>
<path d="M6.1969 5.75293H15.7815V6.96143H6.1969V5.75293Z" fill="#FF792D"/>
<path d="M6.1969 8.33105H15.7815V9.53955H6.1969V8.33105Z" fill="#FF792D"/>
<path d="M6.1969 10.9092H15.7815V12.1177H6.1969V10.9092Z" fill="#FF792D"/>
</svg>
