<svg width="41" height="42" viewBox="0 0 41 42" fill="none" xmlns="http://www.w3.org/2000/svg">
<g clip-path="url(#clip0_19_308)">
<path fill-rule="evenodd" clip-rule="evenodd" d="M20.4952 -1.44333e-05C22.8731 -0.0742194 23.4865 2.30961 25.7512 3.03311C28.0158 3.75661 31.0826 2.70847 33.0547 4.01633C35.0269 5.32419 34.1021 7.60599 35.4987 9.50749C36.8952 11.3997 40.0092 12.318 40.8207 14.5163C41.6322 16.7147 39.5091 18.0225 39.5091 20.36C39.5091 22.6974 41.4812 25.2389 40.8207 27.4836C40.1601 29.7283 37.669 29.5707 36.2725 31.4629C34.8759 33.3551 34.942 36.5552 33.0642 37.9836C31.1864 39.4214 29.2614 37.8445 27.0062 38.568C24.7415 39.2915 22.8826 41.9165 20.5141 41.9907C19.0987 42.0371 18.3061 41.2116 17.4285 40.386C17.4662 35.3957 19.5328 30.8785 22.8731 27.595C26.0437 24.4783 30.2239 22.6047 34.6777 22.2893C34.3758 25.5172 32.9132 28.5782 30.573 30.8785C28.6764 32.7429 26.2513 34.0786 23.5337 34.6537C25.1756 30.86 27.1477 28.2442 29.9502 25.5729C27.6478 26.4819 25.6096 27.8732 23.9677 29.6263C21.8352 31.8988 20.533 34.4867 20.0046 37.4642C20.1838 37.4735 20.3537 37.4735 20.5141 37.4735C25.1473 37.4735 29.3369 35.6276 32.3753 32.6502C35.4138 29.6634 37.2821 25.545 37.2821 20.9907V19.7385C31.1769 19.7385 25.9305 21.0464 21.0614 25.8233C19.7309 27.1312 18.5703 28.6245 17.6361 30.2385C15.7489 29.6727 14.107 28.5689 12.8897 27.1033C11.5026 25.443 10.6817 23.3096 10.6817 20.9907C10.6817 18.3193 11.7857 15.9077 13.5597 14.1546C15.3431 12.4015 17.7965 11.3255 20.5141 11.3255C22.524 11.3255 24.4018 11.9192 25.9588 12.9302C27.5629 13.9783 28.8273 15.481 29.5917 17.2526L29.9974 18.208L31.0354 17.9854C31.7242 17.837 32.4319 17.7164 33.1491 17.6329C33.8851 17.5495 34.5928 17.4845 35.2817 17.466L36.9896 17.4103L36.4612 15.8242C35.3477 12.485 33.1774 9.62808 30.3466 7.60599C27.5535 5.67666 24.1659 4.51721 20.4952 4.51721C15.8621 4.51721 11.6725 6.36306 8.63402 9.34981C5.59559 12.3273 3.72723 16.4549 3.72723 21.0093C3.72723 24.8215 5.04829 28.337 7.26578 31.1382C9.28512 33.6798 12.0405 35.6276 15.2204 36.6665C15.0789 37.3993 14.9751 38.1413 14.9185 38.8927C12.6916 38.3547 9.81354 39.2544 7.93575 38.0022C5.9636 36.6943 6.88834 34.4125 5.49179 32.5203C4.10468 30.6095 0.990754 29.6912 0.179246 27.4836C-0.632261 25.2853 1.49087 23.9775 1.49087 21.64C1.49087 19.3025 -0.481283 16.761 0.179246 14.5163C0.839775 12.2716 3.33091 12.4293 4.72746 10.5371C6.12401 8.64486 6.05796 5.44477 7.93575 4.01633C9.81354 2.58788 11.7385 4.15546 13.9937 3.43196C16.2679 2.70847 18.1173 0.0741905 20.4952 -1.44333e-05ZM16.4849 32.511C14.2768 31.769 12.3424 30.424 10.8987 28.6895C9.15301 26.5932 8.11504 23.9125 8.11504 21C8.11504 17.6422 9.50215 14.5998 11.7385 12.3922C13.9843 10.1939 17.0794 8.83037 20.4952 8.83037C23.0241 8.83037 25.3737 9.5817 27.3364 10.8617C29.0727 11.9934 30.4975 13.5424 31.4695 15.3604C31.913 15.2862 32.3659 15.2213 32.8094 15.1656C32.9981 15.1378 33.1963 15.1192 33.3944 15.1007C32.3659 12.9302 30.7806 11.0565 28.8179 9.66518C26.4778 8.00484 23.6092 7.02163 20.4952 7.02163C16.5698 7.02163 13.0124 8.58921 10.4363 11.1122C7.86026 13.6351 6.26555 17.1413 6.26555 21C6.26555 24.2465 7.38845 27.2239 9.25681 29.5892C10.927 31.6948 13.2105 33.3273 15.8338 34.2177C16.0414 33.6334 16.2584 33.0676 16.4849 32.511Z" fill="#FF792D"/>
</g>
<defs>
<clipPath id="clip0_19_308">
<rect width="41" height="42" fill="white"/>
</clipPath>
</defs>
</svg>
